<svg id="Component_24_8" data-name="Component 24 – 8" xmlns="http://www.w3.org/2000/svg" width="764.786" height="847.841" viewBox="0 0 764.786 847.841">
  <path id="Path_14" data-name="Path 14" d="M5225.384-930.78s-31.834,11.808-66.893,27.589-52.131,22.141-73.342,35.533-40.912,49.867-59.934,82.815-22.751,78.239-29.7,113.2-21.165,136.164-21.165,136.164h764.786s-31.474-239.35-33.206-245.419c-3.505-12.284-9.441-33.582-25.825-51.04s-23.551-24.217-43.531-38.021-41.592-23.352-76.652-36.39a485.944,485.944,0,0,0-62.29-18.77Z" transform="translate(-4974.355 1383.32)" fill="#121212"/>
  <path id="Path_15" data-name="Path 15" d="M5774.326-981.015s-4.721-3.856-7.552-4.093-8.639.854-16.253,4.093-14.534,7.15-14.206,8.865,17.724,36.636,46.437,58.088,61.734,48.07,128.171,43.684,89.429-37.849,96.419-53.587,7.479-38.418,5.535-43.18-8.583-1.165-14.273-5.843-3.311-5.556-8.724-10.289-21.913-9.637-21.913-9.637Z" transform="translate(-5486.718 1425.113)"/>
  <path id="Path_16" data-name="Path 16" d="M688.678-258.542s-13.5,86.568-11.88,88.824,5.423,2.968,8.516,9.455c3.6,7.542,4.861,19.29,3.364,26.484-2.757,13.248-14.987,50.8-94.666,50.843s-127.859-78.231-127.859-78.231,12.081-3.976,21.293-12.374S501.586-188.926,503-194.758s-10-97.494-10-97.494l82.077-19.356,91.331,25.123Z" transform="translate(-188.774 608.376)" fill="#e0c8ae"/>
  <path id="Path_17" data-name="Path 17" d="M464.246-433.777s-2.333,4.451-5.745,5.611a22.411,22.411,0,0,1-14.495,0,37.336,37.336,0,0,1-15.638-10.026c-6.063-6.092-9.136-18.726-10.176-20.823s-.123-3.971-2.486-9.486-5.56-8.873-6.966-12.575-.773-13.044,0-21.514.426-7.2,3.093-12.365a24.371,24.371,0,0,1,7.576-8.313l19.278,3.257,9.567,12.764,2.076,11.592,3.541,18.809,4.1,20.376Z" transform="translate(-149.606 750.745)" fill="#e0c8ae"/>
  <path id="Path_18" data-name="Path 18" d="M3951.518-383.188a12.609,12.609,0,0,0,7.266-3.6c3.2-3.269,3.9-4.233,4.566-9.073s-.051-9.7.982-15.754.482-13.588,0-20,1.264-11.307,1.686-17.787.421-6.065,0-11.5a15.907,15.907,0,0,0-4.4-9.827c-1.2-1.382-4.49-1.543-4.49-1.543l-14.292,53.329Z" transform="translate(-3431.355 686.322)" fill="#e0c8ae"/>
  <path id="Path_19" data-name="Path 19" d="M746.277-861.8s7.055,123.967-45.95,159.7-87.268,14.225-101.191,10.721S548.251-729.1,543.2-734.227,530.7-765.005,524.078-791.9a270.36,270.36,0,0,1-7.383-49.912l-6.655-85.373,43.614-66.851,88-21.142,69.956,11.106L743.8-974.252l9.076,64.7L743.8-876.019Z" transform="translate(-218.285 1081.618)" fill="#e3cbb0"/>
  <g id="Component_23" data-name="Component 23" transform="translate(257.678)">
    <path id="Path_7" data-name="Path 7" d="M450.2-960.228c1.339-.3,1.189-5.2,1.189-5.2s-.232-17.7.809-26.382,2.859-6.878,3.355-8.358-5.972-14.764-6.452-22.31-.321-12.8,4.435-22.82a64.89,64.89,0,0,1,12.752-17.455l8.022,14.675s1.551,2.678,2.507,2.78,2.448-1.277,3.8-2.78c4.907-5.468,15.491-18.98,17.2-23.686,2.149-5.927,2.557-16.383,8.165-29.409a93.363,93.363,0,0,1,14.267-22.7s16.266.407,30.678,2,25.365,4.489,26.973,4.38c3.435-.233,7.88-2.595,19.373-3.758s13.706-1.834,26.6-.894a128.454,128.454,0,0,1,24.973,4.652s8.17,15.659,9.794,22.766-.5,11.924,2.859,26.188,10.576,30.869,10.576,30.869l12.333,2.249s3.839-4.663,5.292-8.448,2.617-12.149,2.363-21.124-3.766-11.323-5.021-23.618a151.261,151.261,0,0,1,0-25.562l6.287-10.719s.512-9.952,0-10.948-2.128-1.547-4.938-3.115-4.563-6.826-5.81-10.522a101.919,101.919,0,0,0-12.332-25.824c-8.075-12.232-14.7-19.419-19.969-23.1s-23.746-20.538-76.135-19.691-68.142,13.319-91.452,28.7-47.774,39.591-56.537,55.433-13.041,19.375-16.514,38.037-4.331,24.868-3.088,46.7a257.686,257.686,0,0,0,6.2,41.828l3.832,18.856s12.108-2.192,20.267,8.106c4.756,6,6.542,12.4,9.184,16.184C447.842-961.658,448.861-959.933,450.2-960.228Z" transform="translate(-406.009 1218.124)" fill="#191209"/>
  </g>
</svg>
